<svg xmlns="http://www.w3.org/2000/svg" viewBox="0 0 636.23 616"><defs><style>.cls-1{fill:#663a1c;}.cls-2{fill:#c98a5f;}.cls-3{fill:#7c4f31;}.cls-4{fill:#7a523c;stroke:#512e17;}.cls-4,.cls-6{stroke-miterlimit:10;stroke-width:3px;}.cls-5,.cls-6{fill:#fff;}.cls-6{stroke:#303030;}.cls-7{fill:#e0363f;}</style></defs><title>cookie</title><g id="Calque_1" data-name="Calque 1"><ellipse class="cls-1" cx="318.12" cy="308" rx="318.12" ry="308"/><ellipse class="cls-2" cx="318.45" cy="307" rx="301.5" ry="290"/><path class="cls-2" d="M637.08,470.37" transform="translate(-223.05 -114)"/><circle class="cls-3" cx="236.95" cy="244" r="19"/><circle class="cls-4" cx="460.95" cy="157" r="33.5"/><circle class="cls-4" cx="460.95" cy="465" r="33.5"/><circle class="cls-4" cx="250.95" cy="537" r="28.5"/><circle class="cls-4" cx="102.95" cy="354" r="33.5"/><circle class="cls-4" cx="565.95" cy="301" r="28.5"/><circle class="cls-4" cx="318.45" cy="301.5" r="21"/><circle class="cls-4" cx="202.45" cy="116.5" r="27"/><ellipse class="cls-5" cx="229.45" cy="236.5" rx="36" ry="46"/><path d="M452.5,305c19.57,0,35.5,20.41,35.5,45.5S472.07,396,452.5,396,417,375.59,417,350.5,432.93,305,452.5,305m0-1c-20.16,0-36.5,20.82-36.5,46.5S432.34,397,452.5,397,489,376.18,489,350.5,472.66,304,452.5,304Z" transform="translate(-223.05 -114)"/><circle cx="229.95" cy="237" r="13"/><ellipse class="cls-5" cx="391.45" cy="237.5" rx="36" ry="46"/><path d="M614.5,306c19.57,0,35.5,20.41,35.5,45.5S634.07,397,614.5,397,579,376.59,579,351.5,594.93,306,614.5,306m0-1c-20.16,0-36.5,20.82-36.5,46.5S594.34,398,614.5,398,651,377.18,651,351.5,634.66,305,614.5,305Z" transform="translate(-223.05 -114)"/><circle cx="391.95" cy="238" r="13"/><path class="cls-5" d="M573,436" transform="translate(-223.05 -114)"/><path class="cls-5" d="M548,601" transform="translate(-223.05 -114)"/><path class="cls-2" d="M483,520" transform="translate(-223.05 -114)"/></g><g id="Calque_2" data-name="Calque 2"><path class="cls-6" d="M684,472c3.35,11.28-36.19,33.33-55.33,42.08A194.92,194.92,0,0,1,547,531a201.65,201.65,0,0,1-64.44-11.32C448.94,507.94,406.51,483.18,410,472c3.37-10.79,46.23,1.5,129,2C639.72,474.61,681.06,462.08,684,472Z" transform="translate(-223.05 -114)"/><path class="cls-7" d="M628.67,514.08a171.11,171.11,0,0,1-16.47,6.51A199,199,0,0,1,547,531a201.65,201.65,0,0,1-64.44-11.32c-7.29-2.55-15-5.71-22.56-9.21C432.7,497.84,647.81,505.33,628.67,514.08Z" transform="translate(-223.05 -114)"/></g></svg>