<svg id="Calque_1" data-name="Calque 1" xmlns="http://www.w3.org/2000/svg" viewBox="0 0 636.24 616"><defs><style>.cls-1{fill:#663a1c;}.cls-2{fill:#c98a5f;}.cls-3{fill:#7c4f31;}.cls-4{fill:#7a523c;stroke:#512e17;stroke-miterlimit:10;stroke-width:3px;}.cls-5{fill:#fff;}</style></defs><title>cookie2</title><ellipse class="cls-1" cx="318.12" cy="308" rx="318.12" ry="308"/><ellipse class="cls-2" cx="318.45" cy="307" rx="301.5" ry="290"/><path class="cls-2" d="M414,356.37"/><circle class="cls-3" cx="236.95" cy="244" r="19"/><circle class="cls-4" cx="460.95" cy="157" r="33.5"/><circle class="cls-4" cx="460.95" cy="465" r="33.5"/><circle class="cls-4" cx="250.95" cy="537" r="28.5" transform="translate(-319.31 698.69) rotate(-80.78)"/><circle class="cls-4" cx="102.95" cy="354" r="33.5"/><circle class="cls-4" cx="565.95" cy="301" r="28.5"/><circle class="cls-4" cx="318.45" cy="301.5" r="21"/><circle class="cls-4" cx="202.45" cy="116.5" r="27"/><ellipse class="cls-5" cx="229.45" cy="236.5" rx="36" ry="46"/><path d="M229.45,191C249,191,265,211.41,265,236.5S249,282,229.45,282,194,261.59,194,236.5s15.93-45.5,35.5-45.5m0-1c-20.16,0-36.5,20.82-36.5,46.5s16.34,46.5,36.5,46.5S266,262.18,266,236.5,249.61,190,229.45,190Z"/><circle cx="229.95" cy="237" r="13"/><ellipse class="cls-5" cx="391.45" cy="237.5" rx="36" ry="46"/><path d="M391.45,192C411,192,427,212.41,427,237.5S411,283,391.45,283,356,262.59,356,237.5s15.93-45.5,35.5-45.5m0-1c-20.16,0-36.5,20.82-36.5,46.5s16.34,46.5,36.5,46.5S428,263.18,428,237.5,411.61,191,391.45,191Z"/><circle cx="391.95" cy="238" r="13"/><path class="cls-5" d="M350,322"/><path class="cls-5" d="M325,487"/><path class="cls-2" d="M260,406"/><rect x="224.45" y="386.77" width="189.58" height="10.8" rx="5.4"/></svg>