<?xml version="1.0" encoding="utf-8"?>
<!-- Generator: Adobe Illustrator 23.0.6, SVG Export Plug-In . SVG Version: 6.00 Build 0)  -->
<svg version="1.1" id="Calque_1" xmlns="http://www.w3.org/2000/svg" xmlns:xlink="http://www.w3.org/1999/xlink" x="0px" y="0px"
	 viewBox="0 0 512 512" style="enable-background:new 0 0 512 512;" xml:space="preserve">
<style type="text/css">
	.st0{fill:#C98A5F;}
</style>
<g>
	<path class="st0" d="M512,64H400v112h32V118c69.2,88.9,61.2,215.4-18.7,294.8s-206.4,86.8-294.9,17.1S7.3,235.5,65.7,139.2
		C124.2,43,245.3,5.4,347.9,51.8c7.7,3.7,17,0.7,21.1-6.8c2.1-4,2.5-8.7,1-12.9c-1.5-4.3-4.7-7.7-8.8-9.5C257.8-24,136,3,61.9,89
		c-74,86-82.6,210.5-21,305.9c61.6,95.3,178.6,138.8,287.4,106.7C437.2,469.5,512,369.5,512,256c0.1-58.2-19.8-114.8-56.5-160H512
		V64z"/>
</g>
</svg>
