<svg id="Capa_1" data-name="Capa 1" xmlns="http://www.w3.org/2000/svg" viewBox="0 0 438.53 438.53"><defs><style>.cls-1{fill:#c98a5f;}</style></defs><title>save</title><path class="cls-1" d="M432.82,121.05q-5.7-13.69-13.71-21.7L339.17,19.41q-8-8-21.69-13.7T292.36,0H27.41A26.44,26.44,0,0,0,8,8,26.43,26.43,0,0,0,0,27.41V411.13a26.42,26.42,0,0,0,8,19.41,26.44,26.44,0,0,0,19.42,8H411.13a27.28,27.28,0,0,0,27.4-27.4V146.18Q438.53,134.75,432.82,121.05ZM182.73,45.68a9.24,9.24,0,0,1,9.13-9.13h54.82a9.26,9.26,0,0,1,9.14,9.13V137a9.26,9.26,0,0,1-9.14,9.13H191.86a9.24,9.24,0,0,1-9.13-9.13V45.68ZM328.91,402H109.63V292.36H328.91ZM402,402H365.44V283.22A27.28,27.28,0,0,0,338,255.81H100.5a27.28,27.28,0,0,0-27.41,27.41V402H36.54V36.54H73.09V155.31a27.28,27.28,0,0,0,27.41,27.41H265a27.3,27.3,0,0,0,27.41-27.41V36.54q4.27,0,11.13,2.86t9.71,5.7l80.23,80.23q2.86,2.86,5.71,9.85t2.86,11V402Z" transform="translate(0)"/></svg>