<svg xmlns="http://www.w3.org/2000/svg" viewBox="0 0 351.3 462.55"><defs><style>.cls-1{fill:#61c0ff;}.cls-2{fill:#008be3;}.cls-3{fill:#fcd088;}.cls-4{fill:#ddab62;}.cls-5{fill:#ffedb5;}.cls-6{fill:#e8cf89;}.cls-7{fill:#3a3a3a;}.cls-8{fill:#333;}.cls-9{fill:#034967;}.cls-10{fill:#969696;}.cls-11{fill:#72716f;}.cls-12{fill:#fff;}</style></defs><title>upgrade_mine1</title><g id="Calque_2" data-name="Calque 2"><rect class="cls-1" y="366.6" width="174.07" height="95.95"/></g><g id="Calque_3" data-name="Calque 3"><rect class="cls-2" x="183.17" y="388.05" width="168.13" height="74.4"/></g><g id="Layer_1" data-name="Layer 1"><rect class="cls-3" x="128.9" y="221.76" width="93.49" height="93.49"/><rect class="cls-4" x="174.08" y="221.76" width="48.32" height="93.49"/><path class="cls-1" d="M199.71,333.08,150.17,343a54,54,0,0,0-43.38,52.91v65.53a278.85,278.85,0,0,0,309.74,0V395.9A54,54,0,0,0,373.15,343l-49.54-9.91-8.76-12.78a6.07,6.07,0,0,0-7.4-2.16l-10.09,4.35a90,90,0,0,1-71.37-.07l-9.84-4.26a6.07,6.07,0,0,0-7.4,2.08Z" transform="translate(-86.01 -46.42)"/><path class="cls-2" d="M373.15,343l-49.54-9.91-8.76-12.78a6.06,6.06,0,0,0-7.4-2.15l-10.09,4.34a89.9,89.9,0,0,1-37.28,7.3V508.36c.53,0,1.05,0,1.58,0a277.49,277.49,0,0,0,154.87-47V395.9A54,54,0,0,0,373.15,343Z" transform="translate(-86.01 -46.42)"/><path class="cls-5" d="M358.76,196.25A122.8,122.8,0,0,0,359.5,183c0-57.26-43.81-103.67-97.84-103.67S163.82,125.72,163.82,183a122.8,122.8,0,0,0,.74,13.27c-9.49,2.47-14,17.07-10.09,32.69s14.87,26.44,24.42,24a11.46,11.46,0,0,0,2.47-1c17.68,35.49,47,64.28,80.3,64.28S324.28,287.49,342,252a11.38,11.38,0,0,0,2.46,1c9.56,2.4,20.49-8.36,24.42-24S368.25,198.72,358.76,196.25Z" transform="translate(-86.01 -46.42)"/><path class="cls-6" d="M358.76,196.25A122.8,122.8,0,0,0,359.5,183c0-57.26-43.81-103.67-97.84-103.67-.53,0-1.05,0-1.58,0V316.24c.53,0,1.05,0,1.58,0,33.25,0,62.62-28.79,80.3-64.28a11.38,11.38,0,0,0,2.46,1c9.56,2.4,20.49-8.36,24.42-24S368.25,198.72,358.76,196.25Z" transform="translate(-86.01 -46.42)"/><path class="cls-1" d="M388.11,342.56l-46.87-6L261.66,486.46,181.88,336.63l-46.67,5.93C106.6,347.63,86,369.92,86,395.8v51.34a280.41,280.41,0,0,0,351.3,0V395.8C437.31,369.92,416.71,347.64,388.11,342.56Z" transform="translate(-86.01 -46.42)"/><path class="cls-2" d="M388.11,342.56l-46.87-6L261.66,486.46l-1.58-2.95V509l1.58,0a279.3,279.3,0,0,0,175.65-61.83V395.8C437.31,369.92,416.71,347.64,388.11,342.56Z" transform="translate(-86.01 -46.42)"/><path class="cls-7" d="M164.59,196.25c14.61,7.17,15.57,35.35,15.57,35.35s16.92-58.06,10.52-79.09S201.34,130,201.34,130A191.76,191.76,0,0,0,261,139.47V71.59C160.58,72.08,150,189.1,164.59,196.25Z" transform="translate(-86.01 -46.42)"/><path class="cls-8" d="M261.66,71.58H261v67.88C296.93,139.52,322,130,322,130s17.07,1.44,10.67,22.48,10.52,79.09,10.52,79.09,1-28.18,15.56-35.35S362.7,71.58,261.66,71.58Z" transform="translate(-86.01 -46.42)"/><path class="cls-9" d="M308.41,309.71s-30.64,87.06-54.27,199.16c2.5.07,5,.1,7.52.1,9.28,0,18.45-.44,27.5-1.26l53.29-93.14a7.69,7.69,0,0,0-.21-8l-13.52-21a7.67,7.67,0,0,1,3.38-11.2L357,363.5a7.7,7.7,0,0,0,3.64-10.77C353.3,339.28,335.29,312.31,308.41,309.71Z" transform="translate(-86.01 -46.42)"/><path class="cls-9" d="M214.91,309.71c-27.12,2.62-46.36,30.05-54.17,43.37a7.29,7.29,0,0,0,3.39,10.36l25.48,11.13a7.3,7.3,0,0,1,3.22,10.64L179,406.73a7.29,7.29,0,0,0-.15,7.67l55.33,93.31c9.05.82,18.22,1.26,27.5,1.26q3.76,0,7.52-.1C245.55,396.77,214.91,309.71,214.91,309.71Z" transform="translate(-86.01 -46.42)"/><path class="cls-1" d="M369.31,167.3c0-28.47-9-53.14-24.06-72l3.09-3.57a5.51,5.51,0,0,0-.56-7.77L328.49,67.29a5.51,5.51,0,0,0-7.77.56l-2.9,3.36a106.59,106.59,0,0,0-37.9-13.84V51.93a5.51,5.51,0,0,0-5.51-5.51h-25.5a5.51,5.51,0,0,0-5.51,5.51v5.44a106.14,106.14,0,0,0-37.9,13.84l-2.91-3.36a5.51,5.51,0,0,0-7.77-.56L175.54,84a5.51,5.51,0,0,0-.56,7.77l3.08,3.57c-15,18.85-24.06,43.52-24.06,72Z" transform="translate(-86.01 -46.42)"/><path class="cls-2" d="M345.25,95.31l3.09-3.57a5.5,5.5,0,0,0-.57-7.77L328.49,67.29a5.51,5.51,0,0,0-7.77.56l-2.91,3.36a106.29,106.29,0,0,0-37.89-13.85V51.93a5.51,5.51,0,0,0-5.51-5.51H260.08V167.3H369.31C369.31,138.83,360.29,114.16,345.25,95.31Z" transform="translate(-86.01 -46.42)"/><path class="cls-2" d="M261.66,137.52c-43.19,0-82.33,10.92-110.9,28.62a2.55,2.55,0,0,0,1.33,4.72H371.23a2.55,2.55,0,0,0,1.33-4.72C344,148.44,304.85,137.52,261.66,137.52Z" transform="translate(-86.01 -46.42)"/><path class="cls-9" d="M372.56,166.14c-28.58-17.7-67.72-28.62-110.9-28.62l-1.58,0v33.32H371.22A2.55,2.55,0,0,0,372.56,166.14Z" transform="translate(-86.01 -46.42)"/><polygon class="cls-10" points="73.66 74.74 68.61 91.74 174.07 91.74 174.07 74.74 73.66 74.74"/><polygon class="cls-11" points="279.21 74.74 174.07 74.74 174.07 91.74 284.26 91.74 279.21 74.74"/><circle class="cls-7" cx="175.65" cy="71.59" r="37.14"/><path class="cls-8" d="M261.66,80.86c-.53,0-1.05.06-1.58.08v74.13c.53,0,1.05.08,1.58.08a37.15,37.15,0,0,0,0-74.29Z" transform="translate(-86.01 -46.42)"/><circle class="cls-10" cx="175.65" cy="71.59" r="22.04"/><path class="cls-11" d="M261.66,96c-.53,0-1.05,0-1.58.07V140c.53,0,1.05.08,1.58.08a22,22,0,0,0,0-44.07Z" transform="translate(-86.01 -46.42)"/><path class="cls-12" d="M254.14,247.11l5.95-17.91Z" transform="translate(-86.01 -46.42)"/></g><g id="Calque_4" data-name="Calque 4"><path class="cls-12" d="M298.8,262.74s-31,60.47-74.29,0" transform="translate(-86.01 -46.42)"/><circle class="cls-12" cx="212.79" cy="165.25" r="15.35"/><circle cx="212.79" cy="165.25" r="5.3"/><circle class="cls-12" cx="138.5" cy="165.25" r="15.35"/><circle cx="138.5" cy="165.25" r="5.3"/></g></svg>