<?xml version="1.0" encoding="utf-8"?>
<!-- Generator: Adobe Illustrator 23.0.6, SVG Export Plug-In . SVG Version: 6.00 Build 0)  -->
<svg version="1.1" xmlns="http://www.w3.org/2000/svg" xmlns:xlink="http://www.w3.org/1999/xlink" x="0px" y="0px"
	 viewBox="0 0 420.7 420.7" style="enable-background:new 0 0 420.7 420.7;" xml:space="preserve">
<style type="text/css">
	.st0{fill:#FFD8AE;}
	.st1{fill:#128DE0;}
	.st2{fill:#0A4A66;}
</style>
<g id="Calque_2">
	<polygon class="st0" points="72.4,130.5 153.5,147 211.8,144.5 311,141.4 348.2,130.3 360.7,213.8 382,240 382,270.3 364,296.8 
		348,353.4 324.4,391.3 256.1,373.6 255,391.3 225,413 177,404.7 152.2,370.3 122.3,396.7 68.6,368.3 58.6,312 56.8,280.3 
		26.9,270.3 32.4,228.8 72.7,222 	"/>
</g>
<g id="Capa_1">
	<g>
		<path class="st1" d="M393.8,214.2c0,5.4-2,10.6-5.5,14.6c-6.8-8.1-16.5-13.6-27.5-14.9c-2.6-28.1-6.8-56-12.5-83.6
			c-1.2-6-6.1-10.7-12.2-11.6c-0.2,0-0.3-0.1-0.5-0.1c-6.3-1.1-12.6,2.1-15.6,7.9c-3.8,7.4-11.3,11.9-19.6,11.9
			c-6.1,0-11.8-2.4-16-6.9c-1.8-1.9-4.3-2.8-6.8-2.4c-2.5,0.3-4.8,1.8-6,4c-3.9,7-11.2,11.3-19.2,11.3c-5.5,0-10.8-2.1-14.9-5.8
			c-3.1-2.8-7.8-2.8-10.8,0c-4.1,3.7-9.4,5.8-14.9,5.8c-0.4,0-0.7,0-1.1,0c-0.3,0-0.5,0-0.8,0c-0.4,0-0.7,0-1.1,0
			c-5.5,0-10.8-2.1-14.9-5.8c-3.1-2.8-7.8-2.8-10.8,0c-4.1,3.7-9.4,5.8-14.9,5.8c-8,0-15.3-4.3-19.2-11.3c-1.2-2.2-3.5-3.7-6-4
			c-2.5-0.3-5.1,0.6-6.8,2.4c-4.2,4.4-9.9,6.9-16,6.9c-8.3,0-15.8-4.6-19.6-11.9c-3-5.8-9.3-9-15.6-7.9c-0.2,0-0.3,0.1-0.5,0.1
			c-6.1,0.9-11,5.6-12.2,11.6l0,0.2c-5.7,27.5-9.8,55.4-12.4,83.4c-11,1.2-20.8,6.8-27.5,14.9c-3.5-4-5.5-9.1-5.5-14.6
			c0-9.3,5.9-17.6,14.6-20.7c3.1-1.1,5.3-4.1,5.3-7.4c0.1-3.3-2-6.4-5.1-7.6c-8.5-3.3-13.9-11.4-13.9-20.5c0-8.3,4.6-15.8,12.1-19.6
			c2.2-1.1,3.8-3.2,4.2-5.6c0.5-2.4-0.2-4.9-1.8-6.8c-3.5-4-5.5-9.2-5.5-14.5c0-11.8,9.2-21.4,20.9-22c3-0.1,5.6-1.9,6.9-4.6
			c1.2-2.7,0.9-5.8-0.9-8.2c-2.9-3.8-4.4-8.4-4.4-13.2c0-12.1,9.9-22,22-22c2.6,0,5.1,0.5,7.5,1.3c2.1,0.8,4.3,0.6,6.3-0.4
			c2-1,3.4-2.7,4.1-4.8c2.8-9.2,11.4-15.6,21-15.6c6.1,0,11.8,2.5,16,6.9c1.8,1.9,4.3,2.8,6.8,2.5s4.8-1.8,6-4
			c3.9-7,11.2-11.3,19.2-11.3c5.5,0,10.8,2.1,14.9,5.8c3.1,2.8,7.8,2.8,10.8,0c4.1-3.7,9.4-5.8,14.9-5.8c0.3,0,0.7,0,1,0
			c0.3,0,0.6,0,1,0s0.7,0,1,0c5.5,0,10.8,2.1,14.9,5.8c3.1,2.8,7.8,2.8,10.8,0c4.1-3.7,9.4-5.8,14.9-5.8c8,0,15.3,4.3,19.2,11.3
			c1.2,2.2,3.5,3.7,6,4s5.1-0.6,6.8-2.5c4.2-4.4,9.9-6.9,16-6.9c9.8,0,18.2,6.3,21.1,15.6c0.6,2.1,2.1,3.8,4.1,4.8
			c2,1,4.2,1.1,6.3,0.3c2.4-0.9,4.9-1.3,7.5-1.3c12.1,0,22,9.9,22,22c0,4.8-1.5,9.4-4.4,13.2c-1.8,2.4-2.1,5.5-0.9,8.2
			c1.3,2.7,3.9,4.4,6.9,4.6c11.7,0.6,20.9,10.2,20.9,22c0,5.3-1.9,10.5-5.5,14.5c-1.6,1.9-2.3,4.4-1.8,6.8c0.5,2.4,2,4.5,4.2,5.6
			c7.4,3.8,12.1,11.3,12.1,19.6c0,9.1-5.5,17.1-13.9,20.5c-3.1,1.2-5.1,4.2-5.1,7.6c0.1,3.3,2.2,6.3,5.3,7.4
			C387.9,196.6,393.8,204.9,393.8,214.2z"/>
		<circle class="st2" cx="283.5" cy="248.1" r="14"/>
		<path class="st2" d="M211.8,144.5c5.5,0,10.8-2.1,14.9-5.8c3.1-2.8,7.8-2.8,10.8,0c4.1,3.7,9.4,5.8,14.9,5.8
			c8,0,15.3-4.3,19.2-11.3c1.2-2.2,3.5-3.7,6-4c2.5-0.3,5,0.6,6.8,2.4c4.2,4.4,9.9,6.9,16,6.9c8.3,0,15.8-4.6,19.6-11.9
			c3-5.8,9.3-9,15.6-7.9c0.2,0,0.3,0.1,0.5,0.1c6,0.9,11,5.6,12.2,11.6c5.7,27.6,9.9,55.5,12.5,83.6c11,1.2,20.8,6.8,27.5,14.9
			c3.5-4,5.5-9.1,5.5-14.6c0-9.3-5.9-17.6-14.6-20.7c-3.1-1.1-5.2-4.1-5.3-7.4c0-3.3,2-6.4,5.1-7.6c8.5-3.3,13.9-11.4,13.9-20.5
			c0-8.3-4.6-15.8-12.1-19.6c-2.2-1.1-3.8-3.2-4.2-5.6c-0.5-2.4,0.2-4.9,1.8-6.8c3.5-4,5.5-9.2,5.5-14.5c0-11.8-9.2-21.4-20.9-22
			c-3-0.1-5.6-1.9-6.9-4.6c-1.3-2.7-0.9-5.8,0.9-8.2c2.9-3.8,4.4-8.4,4.4-13.2c0-12.1-9.9-22-22-22c-2.6,0-5.1,0.4-7.5,1.3
			c-2.1,0.8-4.4,0.6-6.3-0.3c-2-1-3.5-2.7-4.1-4.8c-2.8-9.4-11.3-15.6-21.1-15.6c-6.1,0-11.8,2.5-16,6.9c-1.8,1.9-4.3,2.8-6.8,2.5
			s-4.8-1.8-6-4c-3.9-7-11.3-11.3-19.2-11.3c-5.5,0-10.8,2.1-14.9,5.8c-3.1,2.8-7.8,2.8-10.8,0c-4.1-3.7-9.4-5.8-14.9-5.8
			c-0.3,0-0.7,0-1,0s-0.6,0-1,0c-0.3,0-0.7,0-1,0c-5.5,0-10.8,2.1-14.9,5.8c-3.1,2.8-7.8,2.8-10.8,0c-4.1-3.7-9.3-5.8-14.9-5.8
			c-8,0-15.3,4.3-19.2,11.3c-1.2,2.2-3.5,3.7-6,4s-5.1-0.6-6.8-2.5c-4.2-4.4-9.9-6.9-16-6.9c-9.6,0-18.3,6.4-21,15.6
			c-0.6,2.1-2.1,3.8-4.1,4.8c-2,1-4.2,1.1-6.3,0.4c-2.4-0.9-4.9-1.3-7.5-1.3c-12.1,0-22,9.9-22,22c0,4.8,1.5,9.4,4.4,13.2
			c1.8,2.4,2.1,5.5,0.9,8.2c-1.3,2.7-3.9,4.5-6.9,4.6c-11.7,0.6-20.9,10.2-20.9,22c0,5.3,1.9,10.5,5.5,14.5c1.6,1.9,2.3,4.4,1.8,6.8
			c-0.5,2.4-2,4.5-4.2,5.6c-7.4,3.8-12.1,11.3-12.1,19.6c0,9.1,5.5,17.1,13.9,20.5c3.1,1.2,5.1,4.2,5.1,7.6c0,3.3-2.2,6.3-5.3,7.4
			c-8.7,3.1-14.6,11.4-14.6,20.7c0,5.4,2,10.6,5.5,14.6c6.8-8.1,16.5-13.7,27.5-14.9c2.6-28,6.8-55.9,12.4-83.4l0-0.2
			c1.2-6,6.2-10.7,12.2-11.6c0.2,0,0.3-0.1,0.5-0.1c6.3-1.1,12.6,2.1,15.6,7.9c3.8,7.4,11.3,11.9,19.6,11.9c6.1,0,11.8-2.4,16-6.9
			c1.8-1.9,4.3-2.8,6.8-2.4c2.5,0.3,4.8,1.8,6,4c3.9,7,11.3,11.3,19.2,11.3c5.5,0,10.8-2.1,14.9-5.8c3.1-2.8,7.8-2.8,10.8,0
			c4.1,3.7,9.4,5.8,14.9,5.8c0.4,0,0.7,0,1.1,0c0.3,0,0.5,0,0.8,0C211.1,144.4,211.5,144.5,211.8,144.5z M396.9,185.7
			c8,7.1,12.9,17.4,12.9,28.5c0,11.4-5.1,22-13.6,29.1c1.2,3.9,1.8,8,1.8,12.3c0,20.4-14.6,37.5-34,41.2v33.8
			c0,17.5-7.2,34.7-19.7,47.2c-12.3,12.3-28.5,19-45.5,19c-0.1,0-0.3,0-0.4,0c-11.3-0.1-22-3-31.7-8.4c-11.6,20-32.8,32.4-56.4,32.4
			c-23.6,0-44.8-12.5-56.4-32.4c-9.6,5.5-20.4,8.3-31.7,8.4c-17.1,0.1-33.5-6.6-45.9-19c-12.5-12.5-19.7-29.6-19.7-47.2v-33.8
			c-19.4-3.8-34-20.8-34-41.2c0-4.2,0.6-8.4,1.8-12.2c-8.5-7.1-13.6-17.8-13.6-29.2c0-11.1,4.9-21.4,12.9-28.5
			c-7.5-7-11.9-16.9-11.9-27.7c0-11.3,5-21.8,13.3-28.9c-2.8-5.4-4.3-11.4-4.3-17.6c0-16.2,10.1-30.1,24.6-35.6
			c-1.4-4-2.1-8.1-2.1-12.4c0-21,17-38,38-38c1.9,0,3.7,0.1,5.6,0.4C93.4,13.8,106.1,6,120.3,6c7.2,0,14.3,2.1,20.4,5.9
			C147.8,4.4,157.7,0,168.3,0c7.2,0,14.2,2,20.3,5.9c6.4-4.1,14-6.2,21.8-5.8c0.5,0,1,0,1.5,0c7.2,0,14.2,2,20.3,5.9
			c6-3.8,13-5.9,20.3-5.9c10.6,0,20.5,4.4,27.6,11.9c6-3.9,13-5.9,20.4-5.9c14.3,0,26.9,7.8,33.4,19.9c1.8-0.3,3.7-0.4,5.6-0.4
			c21,0,38,17,38,38c0,4.3-0.7,8.5-2.1,12.4c14.4,5.4,24.6,19.3,24.6,35.6c0,6.2-1.5,12.2-4.3,17.6c8.4,7.1,13.3,17.6,13.3,28.9
			C408.9,168.8,404.4,178.7,396.9,185.7z M364,280.3c10.4-3.4,18-13.2,18-24.8c0-12.2-8.5-22.5-19.9-25.3
			C363.3,246.9,363.9,263.6,364,280.3z M348,330.5V284c0-49.6-5-99.5-15-148.1c-6.8,11.5-19.1,18.6-32.7,18.6
			c-7.2,0-14.3-2.1-20.4-5.9c-7.1,7.5-17,11.9-27.6,11.9c-7.2,0-14.2-2-20.3-5.9c-6,3.8-13,5.9-20.3,5.9c-0.5,0-1,0-1.5,0
			c-0.5,0-1,0-1.5,0c-7.2,0-14.3-2-20.3-5.9c-6,3.8-13,5.9-20.3,5.9c-10.6,0-20.5-4.4-27.6-11.9c-6,3.8-13.1,5.9-20.3,5.9
			c-13.5,0-25.8-7.1-32.7-18.6c-5,24.3-8.7,48.9-11.2,73.6c-1,9.7-1.6,17.7-1.8,20.7c-1.6,21.6-2,39.9-2,53.7c0,15.6,0,31.2,0,46.8
			c0,13.3,5.5,26.3,15,35.8c9.4,9.3,21.6,14.4,34.5,14.3c11-0.1,21.3-3.7,30-10.5c1.4-1.1,3.2-1.7,4.9-1.7c0.7,0,1.4,0.1,2.1,0.3
			c2.4,0.7,4.4,2.4,5.4,4.8c7.5,18.9,25.4,31.1,45.8,31.1c20.3,0,38.3-12.2,45.8-31.1c0.9-2.3,2.9-4.1,5.4-4.8c2.4-0.7,5-0.1,7,1.4
			c8.6,6.8,19,10.4,30,10.5c12.9,0.1,25.1-5,34.5-14.3C342.5,356.9,348,343.8,348,330.5z M56.8,280.3c0.1-16.7,0.7-33.4,1.9-50
			c-11.4,2.8-19.9,13-19.9,25.3C38.7,267.1,46.3,276.9,56.8,280.3z"/>
		<circle class="st2" cx="139.5" cy="248.1" r="14"/>
	</g>
	<path class="st1" d="M334.4,248.2c0.1,27.2-20.4,50-47.5,52.9c-26.6,2.8-51.6-15.3-57.4-41.5c-0.3-1.5-1.5-3.3-2.8-4.2
		c-13.9-9.5-18.5-9.5-32.3-0.4c-2,1.3-2.9,3-3.5,5.3c-5.5,23.7-27.4,42.6-55.7,41c-23.7-1.4-45-20.9-48.5-45.2
		c-4.3-29.4,15.8-56.6,45.2-60.5c20.9-2.8,37.9,4.9,50.6,21.9c1.4,1.9,2.4,2.1,4.5,1.1c15.6-7.7,31.3-7.6,46.9,0.1
		c2,1,3,0.7,4.3-1.1c13.2-18.4,35.4-26.4,57.1-20.7c21.2,5.6,36.8,23.9,39.1,45.9C334.6,244.4,334.4,246.3,334.4,248.2z
		 M317.1,248.1c0-19.8-15.8-35.8-35.6-35.9c-19.6-0.1-36,16.3-35.9,35.9c0.1,19.7,16.1,35.6,35.8,35.6
		C301.3,283.7,317.1,267.9,317.1,248.1z M139.4,283.7c19.9,0,36-16.1,35.9-35.8c-0.1-19.6-16.3-35.7-35.9-35.7
		c-19.6,0-35.6,16.1-35.6,35.8C103.8,267.9,119.6,283.7,139.4,283.7z"/>
	<path class="st1" d="M238.4,335.8c0,0-28.4,39.4-61.4,0"/>
	
		<image style="display:none;overflow:visible;" width="1600" height="1600" xlink:href="purchase_granny3.png"  transform="matrix(0.3384 0 0 0.3384 -612.93 -75.9134)">
	</image>
</g>
</svg>
