<?xml version="1.0" encoding="utf-8"?>
<!-- Generator: Adobe Illustrator 23.0.6, SVG Export Plug-In . SVG Version: 6.00 Build 0)  -->
<svg version="1.1" xmlns="http://www.w3.org/2000/svg" xmlns:xlink="http://www.w3.org/1999/xlink" x="0px" y="0px"
	 viewBox="0 0 512 512" style="enable-background:new 0 0 512 512;" xml:space="preserve">
<style type="text/css">
	.st0{fill:#61C0FF;}
	.st1{fill:#008BE3;}
	.st2{fill:#FCD088;}
	.st3{fill:#DDAB62;}
	.st4{fill:#FFEDB5;}
	.st5{fill:#E8CF89;}
	.st6{fill:#3A3A3A;}
	.st7{fill:#333333;}
	.st8{fill:#034967;}
	.st9{fill:#969696;}
	.st10{fill:#72716F;}
	.st11{fill:#FFFFFF;}
</style>
<g id="Calque_2">
	<rect x="86" y="413" class="st0" width="174.1" height="95.9"/>
</g>
<g id="Calque_3">
	<rect x="269.2" y="434.5" class="st1" width="168.1" height="74.4"/>
</g>
<g id="Layer_1">
	<rect x="214.9" y="268.2" class="st2" width="93.5" height="93.5"/>
	<rect x="260.1" y="268.2" class="st3" width="48.3" height="93.5"/>
	<path class="st0" d="M199.7,333.1l-49.5,9.9c-25.2,5-43.4,27.2-43.4,52.9v65.5c44.3,29.7,97.6,47,154.9,47s110.6-17.3,154.9-47
		v-65.5c0-25.7-18.2-47.9-43.4-52.9l-49.5-9.9l-8.8-12.8c-1.6-2.4-4.7-3.3-7.4-2.2l-10.1,4.3c-22.8,9.8-48.6,9.8-71.4-0.1l-9.8-4.3
		c-2.6-1.2-5.7-0.3-7.4,2.1L199.7,333.1z"/>
	<path class="st1" d="M373.1,343l-49.5-9.9l-8.8-12.8c-1.6-2.4-4.7-3.3-7.4-2.2l-10.1,4.3c-11.9,5.1-24.6,7.5-37.3,7.3v178.6
		c0.5,0,1,0,1.6,0c57.3,0,110.6-17.3,154.9-47v-65.5C416.5,370.2,398.4,348,373.1,343z"/>
	<path class="st4" d="M358.8,196.3c0.5-4.5,0.7-8.9,0.7-13.3c0-57.3-43.8-103.7-97.8-103.7s-97.8,46.4-97.8,103.7
		c0,4.3,0.3,8.8,0.7,13.3c-9.5,2.5-14,17.1-10.1,32.7c3.9,15.7,14.9,26.4,24.4,24c0.9-0.2,1.7-0.6,2.5-1
		c17.7,35.5,47.1,64.3,80.3,64.3s62.6-28.8,80.3-64.3c0.8,0.4,1.6,0.8,2.5,1c9.6,2.4,20.5-8.4,24.4-24
		C372.8,213.3,368.2,198.7,358.8,196.3z"/>
	<path class="st5" d="M358.8,196.3c0.5-4.5,0.7-8.9,0.7-13.3c0-57.3-43.8-103.7-97.8-103.7c-0.5,0-1,0-1.6,0v236.9c0.5,0,1,0,1.6,0
		c33.2,0,62.6-28.8,80.3-64.3c0.8,0.4,1.6,0.8,2.5,1c9.6,2.4,20.5-8.4,24.4-24C372.8,213.3,368.2,198.7,358.8,196.3z"/>
	<path class="st0" d="M388.1,342.6l-46.9-6l-79.6,149.9l-79.8-149.8l-46.7,5.9c-28.6,5.1-49.2,27.4-49.2,53.2v51.3
		c48.1,38.7,109.2,61.8,175.6,61.8s127.6-23.2,175.6-61.8v-51.3C437.3,369.9,416.7,347.6,388.1,342.6z"/>
	<path class="st1" d="M388.1,342.6l-46.9-6l-79.6,149.9l-1.6-3V509c0.5,0,1,0,1.6,0c66.5,0,127.6-23.2,175.6-61.8v-51.3
		C437.3,369.9,416.7,347.6,388.1,342.6z"/>
	<path class="st6" d="M164.6,196.3c14.6,7.2,15.6,35.4,15.6,35.4s16.9-58.1,10.5-79.1c-6.4-21,10.7-22.5,10.7-22.5
		c21.4,7.1,41.9,9.4,59.7,9.4V71.6C160.6,72.1,150,189.1,164.6,196.3z"/>
	<path class="st7" d="M261.7,71.6c-0.2,0-0.4,0-0.6,0v67.9c35.9,0.1,60.9-9.4,60.9-9.4s17.1,1.4,10.7,22.5
		c-6.4,21,10.5,79.1,10.5,79.1s1-28.2,15.6-35.4C373.3,189.1,362.7,71.6,261.7,71.6z"/>
	<path class="st8" d="M308.4,309.7c0,0-30.6,87.1-54.3,199.2c2.5,0.1,5,0.1,7.5,0.1c9.3,0,18.5-0.4,27.5-1.3l53.3-93.1
		c1.4-2.5,1.3-5.6-0.2-8l-13.5-21c-2.6-4-1-9.3,3.4-11.2l24.9-10.9c4.2-1.8,5.8-6.8,3.6-10.8C353.3,339.3,335.3,312.3,308.4,309.7z"
		/>
	<path class="st8" d="M214.9,309.7c-27.1,2.6-46.4,30-54.2,43.4c-2.2,3.8-0.6,8.6,3.4,10.4l25.5,11.1c4.1,1.8,5.6,6.9,3.2,10.6
		L179,406.7c-1.5,2.3-1.6,5.3-0.1,7.7l55.3,93.3c9,0.8,18.2,1.3,27.5,1.3c2.5,0,5,0,7.5-0.1C245.5,396.8,214.9,309.7,214.9,309.7z"
		/>
	<path class="st0" d="M369.3,167.3c0-28.5-9-53.1-24.1-72l3.1-3.6c2-2.3,1.7-5.8-0.6-7.8l-19.3-16.7c-2.3-2-5.8-1.7-7.8,0.6
		l-2.9,3.4c-11.4-6.9-24.2-11.6-37.9-13.8v-5.4c0-3-2.5-5.5-5.5-5.5h-25.5c-3,0-5.5,2.5-5.5,5.5v5.4c-13.7,2.2-26.5,7-37.9,13.8
		l-2.9-3.4c-2-2.3-5.5-2.6-7.8-0.6L175.5,84c-2.3,2-2.6,5.5-0.6,7.8l3.1,3.6c-15,18.8-24.1,43.5-24.1,72H369.3L369.3,167.3z"/>
	<path class="st1" d="M345.2,95.3l3.1-3.6c2-2.3,1.7-5.8-0.6-7.8l-19.3-16.7c-2.3-2-5.8-1.7-7.8,0.6l-2.9,3.4
		c-11.4-6.9-24.2-11.6-37.9-13.8v-5.4c0-3-2.5-5.5-5.5-5.5h-14.3v120.9h109.2C369.3,138.8,360.3,114.2,345.2,95.3z"/>
	<path class="st1" d="M261.7,137.5c-43.2,0-82.3,10.9-110.9,28.6c-2.2,1.4-1.2,4.7,1.3,4.7h219.1c2.6,0,3.5-3.4,1.3-4.7
		C344,148.4,304.8,137.5,261.7,137.5z"/>
	<path class="st8" d="M372.6,166.1c-28.6-17.7-67.7-28.6-110.9-28.6c-0.5,0-1,0-1.6,0v33.3h111.1
		C373.8,170.9,374.7,167.5,372.6,166.1z"/>
	<polygon class="st9" points="159.7,121.2 154.6,138.2 260.1,138.2 260.1,121.2 	"/>
	<polygon class="st10" points="365.2,121.2 260.1,121.2 260.1,138.2 370.3,138.2 	"/>
	<circle class="st6" cx="261.7" cy="118" r="37.1"/>
	<path class="st7" d="M261.7,80.9c-0.5,0-1,0.1-1.6,0.1v74.1c0.5,0,1,0.1,1.6,0.1c20.5,0,37.1-16.6,37.1-37.1S282.2,80.9,261.7,80.9
		z"/>
	<circle class="st9" cx="261.7" cy="118" r="22"/>
	<path class="st10" d="M261.7,96c-0.5,0-1.1,0-1.6,0.1V140c0.5,0,1,0.1,1.6,0.1c12.2,0,22-9.9,22-22C283.7,105.8,273.8,96,261.7,96z
		"/>
	<path class="st11" d="M254.1,247.1l6-17.9L254.1,247.1z"/>
</g>
<g id="Calque_4">
	<path class="st11" d="M298.8,262.7c0,0-31,60.5-74.3,0"/>
	<circle class="st11" cx="298.8" cy="211.7" r="15.4"/>
	<circle cx="298.8" cy="211.7" r="5.3"/>
	<circle class="st11" cx="224.5" cy="211.7" r="15.4"/>
	<circle cx="224.5" cy="211.7" r="5.3"/>
</g>
<g id="Calque_5">
</g>
</svg>
