<?xml version="1.0" encoding="utf-8"?>
<!-- Generator: Adobe Illustrator 23.0.6, SVG Export Plug-In . SVG Version: 6.00 Build 0)  -->
<svg version="1.1" id="Calque_1" xmlns="http://www.w3.org/2000/svg" xmlns:xlink="http://www.w3.org/1999/xlink" x="0px" y="0px"
	 viewBox="0 0 502 502" style="enable-background:new 0 0 502 502;" xml:space="preserve">
<style type="text/css">
	.st0{fill:#FC97FF;}
	.st1{fill:#2DA1FF;}
	.st2{fill:#CE75D3;}
	.st3{fill:none;}
	.st4{fill:#96599B;}
</style>
<g id="Calque_3">
	<polygon class="st0" points="239.5,156.7 366.2,447.5 471.6,403.1 471.6,302.1 428,194.2 355.6,198.8 339.7,156.7 282,148.5 
		251,133.3 	"/>
	<path class="st1" d="M613.7,39.5"/>
</g>
<g>
	<polyline class="st2" points="239.5,156.7 366.2,447.5 280.1,501.2 116.3,362.5 120.2,310 204.6,310.7 104.9,127.5 146.8,72.3 
		217.7,144.4 239.5,156.7 	"/>
	<line class="st3" x1="239.5" y1="156.7" x2="366.2" y2="447.5"/>
</g>
<g id="Layer_1">
	<g>
		<g>
			<g>
				<path class="st4" d="M461.6,251.9l-15-34.2c-0.9-2-1.9-4-2.9-6c-6.3-11.5-16.6-20.1-29-24.3s-25.8-3.6-37.8,1.6l-5.8,2.5
					l-7.4-16.8l0,0l-5.5-12.4c-4.7-10.6-13.2-18.7-24-22.9c-10.8-4.1-22.5-3.8-33,0.8l-19.2,8.3c-3.6-5.1-7.9-8.9-12.9-11.5
					c-10.5-5.4-23.2-5-37.6,1.4l-13.8,6l-17.8-40.5c-7.2-16.5-20.7-27.8-36.9-31c-15.2-3-30.8,1.3-41.5,11.5
					c-16.1,15.4-20.8,38.5-11.8,58.9l67.5,154.4c-5.6-1.1-11.6-1.7-17.6-1.5c-15.7,0.4-29.8,5.4-39.2,13.8c-0.6,0.4-1.2,0.9-1.7,1.4
					c-9.5,9.8-14.2,21.6-13.5,34.2c0.8,15.7,9.8,31.3,26,44.9c0.1,0.1,0.2,0.1,0.2,0.2l138.7,109.1c1.8,1.4,4,2.1,6.2,2.1
					c1.4,0,2.7-0.3,4-0.8L479,413.8c3.4-1.5,5.7-4.8,6-8.5l1.1-17.3C488.7,341.5,480.4,294.5,461.6,251.9z M465.9,386.7l-0.7,11.2
					l-187.6,82.5L143.7,375.1c-11.6-9.8-18.3-20.6-18.8-30.5c-0.3-6.4,1.9-12.4,6.5-17.7c0.3-0.3,0.7-0.6,1-0.9
					c12-12.3,41.8-13.2,57.4-1.7l34.4,33.1c1.9,1.9,4.4,2.8,6.9,2.8c2.6,0,5.2-1,7.2-3.1c3.8-4,3.7-10.3-0.3-14.1l-33.5-32.2
					L128,135.2c-6.7-15.3-0.6-28.8,7.3-36.4c6-5.7,15.1-8.1,23.8-6.4c9.9,2,17.9,8.9,22.5,19.5L239.7,244c1.6,3.7,5.3,6,9.2,6
					c1.3,0,2.7-0.3,4-0.8c5.1-2.2,7.4-8.1,5.1-13.2l-32.2-73.2l13.8-6c8.6-3.8,15.5-4.4,20.4-1.9c3.5,1.8,6.4,5.3,8.7,10.5
					l34.2,77.9c1.6,3.7,5.3,6,9.2,6c1.3,0,2.7-0.3,4-0.8c5.1-2.2,7.4-8.1,5.1-13.2L291,166.6l18.3-7.9c0,0,0.1,0,0.1-0.1
					c5.6-2.5,11.9-2.7,17.7-0.5c5.8,2.2,10.4,6.6,12.9,12.3l40.7,92.6c1.6,3.7,5.3,6,9.2,6c1.3,0,2.7-0.3,4-0.8
					c5.1-2.2,7.4-8.1,5.1-13.2l-19.8-45l5.7-2.5c15.5-6.7,33.2-0.7,41.2,14c0.8,1.4,1.5,2.9,2.2,4.4l15,34.2
					C460.8,299.6,468.6,343.5,465.9,386.7z"/>
				<path class="st4" d="M425,380l-127.3,55.8c-6.1,2.7-8.9,9.8-6.2,15.9c2,4.5,6.4,7.2,11.1,7.2c1.6,0,3.3-0.3,4.8-1l127.3-55.8
					c6.1-2.7,8.9-9.8,6.2-15.9C438.2,380.1,431.1,377.3,425,380z"/>
				<path class="st2" d="M127,45.2c1,4.7,5.1,8,9.8,8c0.7,0,1.4-0.1,2-0.2c5.4-1.1,8.9-6.4,7.8-11.8L139.8,8
					c-1.1-5.4-6.4-8.9-11.8-7.8c-5.4,1.1-8.9,6.4-7.8,11.8L127,45.2z"/>
				<path class="st0" d="M60.5,72.2l21.3,14c1.7,1.1,3.6,1.6,5.5,1.6c3.3,0,6.4-1.6,8.4-4.5c3-4.6,1.8-10.8-2.9-13.8l-21.3-14
					c-4.6-3-10.8-1.8-13.8,2.9C54.6,63,55.8,69.2,60.5,72.2z"/>
				<path class="st2" d="M86.6,135.5c-1.1-5.4-6.4-8.9-11.8-7.8l-33.2,6.9c-5.4,1.1-8.9,6.4-7.8,11.8c1,4.7,5.1,8,9.8,8
					c0.7,0,1.4-0.1,2-0.2l33.2-6.9C84.3,146.2,87.7,140.9,86.6,135.5z"/>
				<path class="st0" d="M111.8,187c-4.6-3-10.8-1.8-13.8,2.9l-18.6,28.3c-3,4.6-1.8,10.8,2.9,13.9c1.7,1.1,3.6,1.6,5.5,1.6
					c3.3,0,6.4-1.6,8.4-4.5l18.6-28.3C117.7,196.2,116.4,190,111.8,187z"/>
				<path class="st2" d="M221.4,105.2c1,4.7,5.1,8,9.8,8c0.7,0,1.4-0.1,2-0.2l22.1-4.6c5.4-1.1,8.9-6.4,7.8-11.8s-6.4-8.9-11.8-7.8
					l-22.1,4.6C223.7,94.5,220.2,99.8,221.4,105.2z"/>
				<path class="st0" d="M190.9,62c1.7,1.1,3.6,1.6,5.5,1.6c3.3,0,6.4-1.6,8.4-4.5l18.6-28.3c3-4.6,1.8-10.8-2.9-13.9
					c-4.6-3-10.8-1.8-13.9,2.9L188,48.1C185,52.7,186.3,58.9,190.9,62z"/>
			</g>
		</g>
	</g>
</g>
</svg>
